<?xml version="1.0" encoding="utf-8"?>
<!-- Generator: Adobe Illustrator 24.0.2, SVG Export Plug-In . SVG Version: 6.00 Build 0)  -->
<svg version="1.1" id="レイヤー_1" xmlns="http://www.w3.org/2000/svg" xmlns:xlink="http://www.w3.org/1999/xlink" x="0px"
	 y="0px" width="280px" height="60px" viewBox="0 0 280 60" style="enable-background:new 0 0 280 60;" xml:space="preserve">
<style type="text/css">
	.st0{fill:#FFFFFF;}
	.st1{fill:#492601;}
	.st2{fill:none;stroke:#FFFFFF;stroke-miterlimit:10;}
	.st3{fill:#442200;}
</style>
<g>
	<path class="st0" d="M67.6,9.7c0-0.4-0.1-0.6-0.4-0.8c-0.3-0.2-0.6-0.3-0.9-0.3c-0.7,0-1.3,0.1-1.9,0.3c-0.6,0.2-1.2,0.4-1.7,0.8
		c-0.5,0.3-0.9,0.7-1.2,1.2c-0.3,0.5-0.5,1-0.5,1.5c0,0.4,0,0.7,0.2,0.9c0.1,0.2,0.2,0.4,0.3,0.5s0.3,0.2,0.4,0.2s0.2,0,0.3,0
		c0.3,0,0.5-0.1,0.7-0.1c0.2-0.1,0.3-0.2,0.5-0.3c0.2-0.1,0.3-0.2,0.4-0.3c0.1-0.1,0.3-0.1,0.5-0.1c0.1,0,0.3,0,0.4,0.1
		c0.2,0.1,0.3,0.2,0.4,0.3c0.1,0.1,0.3,0.3,0.3,0.6c0.1,0.2,0.1,0.5,0.1,0.8c0,0.5-0.1,0.9-0.3,1.2c-0.2,0.3-0.4,0.6-0.7,0.9
		c-0.3,0.2-0.6,0.4-1,0.5s-0.7,0.2-1.1,0.2c-0.6,0-1.1-0.1-1.5-0.3c-0.5-0.2-0.8-0.5-1.1-0.8c-0.3-0.3-0.5-0.7-0.7-1.2
		c-0.2-0.4-0.2-0.9-0.2-1.4c0-1.4,0.4-2.7,1.1-3.6s1.7-1.7,3-2.2c1.3-0.5,2.7-0.9,4.4-1.1c1.7-0.2,3.5-0.3,5.4-0.3
		c2.2,0,4.1,0.2,5.9,0.7c1.8,0.4,3.3,1.1,4.5,2.1c1.2,1,2.2,2.3,2.9,3.8s1,3.5,1,5.8s-0.4,4.3-1.1,6c-0.7,1.8-1.7,3.2-2.9,4.4
		c-1.2,1.2-2.7,2.1-4.4,2.7s-3.5,0.9-5.4,0.9c-1.3,0-2.3-0.1-3.1-0.2s-1.4-0.3-1.8-0.6s-0.7-0.7-0.8-1.2c-0.1-0.5-0.2-1.1-0.2-1.9
		L67.6,9.7L67.6,9.7z M73.3,29.5c0,0.7,0.2,1.1,0.4,1.4c0.3,0.3,0.7,0.4,1.3,0.4c0.9,0,1.7-0.2,2.4-0.6c0.7-0.4,1.4-1,1.9-2
		c0.5-0.9,0.9-2.2,1.3-3.7c0.3-1.6,0.4-3.5,0.4-5.9c0-1.6-0.1-3-0.3-4.1s-0.4-2.1-0.8-2.9c-0.3-0.8-0.7-1.5-1.1-2
		c-0.4-0.5-0.8-0.9-1.2-1.2c-0.4-0.3-0.8-0.5-1.2-0.6s-0.8-0.1-1.1-0.1c-0.8,0-1.3,0.2-1.6,0.5s-0.5,0.9-0.5,1.8L73.3,29.5
		L73.3,29.5z"/>
</g>
<g>
	<path class="st0" d="M96.4,18.3c0.4-0.7,0.9-1.3,1.4-1.8c0.2-0.2,0.4-0.5,0.7-0.7s0.5-0.4,0.8-0.6s0.5-0.3,0.8-0.4
		c0.3-0.1,0.6-0.2,0.8-0.2c0.6,0,1.1,0.2,1.4,0.5c0.3,0.4,0.5,0.8,0.5,1.5c0,0.4,0,0.8-0.1,1.1c-0.1,0.4-0.2,0.8-0.4,1.3h-0.5
		c-0.1-0.4-0.2-0.7-0.5-0.9c-0.3-0.2-0.6-0.4-1.1-0.4c-0.4,0-0.7,0.1-1.1,0.2c-0.3,0.1-0.7,0.3-1,0.5c-0.3,0.2-0.7,0.4-0.9,0.6
		c-0.3,0.2-0.6,0.5-0.8,0.7v11.3c0,0.1,0,0.3-0.1,0.5c-0.1,0.2-0.2,0.4-0.3,0.6c-0.2,0.2-0.4,0.3-0.8,0.5C94.8,33,94.3,33,93.7,33
		s-1.1-0.1-1.5-0.2s-0.6-0.3-0.8-0.5c-0.2-0.2-0.3-0.4-0.3-0.6C91,31.5,91,31.3,91,31.2V17.7c0-0.3-0.1-0.6-0.2-0.9
		c-0.2-0.3-0.4-0.4-0.8-0.4c-0.2,0-0.4,0-0.5,0.1c-0.1,0.1-0.3,0.2-0.4,0.3l-0.4-0.4c0.3-0.2,0.6-0.4,0.9-0.6
		c0.3-0.2,0.7-0.4,1.1-0.6c0.4-0.2,0.8-0.3,1.2-0.4c0.4-0.1,0.9-0.2,1.4-0.2c0.5,0,0.9,0.1,1.3,0.2s0.7,0.3,0.9,0.5
		c0.2,0.2,0.4,0.5,0.5,0.7c0.1,0.3,0.2,0.5,0.3,0.8c0.1,0.3,0.1,0.5,0.1,0.8C96.4,17.9,96.4,18.2,96.4,18.3z"/>
</g>
<g>
	<path class="st0" d="M110.1,16.1c-0.4,0-0.8,0-1.1,0.1s-0.6,0.2-0.9,0.4c-0.2,0.1-0.4,0.3-0.6,0.5c-0.1,0.2-0.2,0.3-0.2,0.5
		c0,0.2,0.1,0.3,0.3,0.4s0.4,0.2,0.6,0.3s0.4,0.2,0.6,0.4s0.3,0.5,0.3,0.8c0,0.2-0.1,0.5-0.2,0.7s-0.2,0.4-0.4,0.5
		c-0.2,0.2-0.4,0.3-0.6,0.4c-0.2,0.1-0.5,0.1-0.7,0.1c-0.7,0-1.2-0.2-1.6-0.7s-0.6-1-0.6-1.8c0-0.7,0.2-1.3,0.6-1.8
		c0.4-0.5,0.9-0.9,1.5-1.3s1.3-0.6,2-0.7c0.8-0.2,1.5-0.2,2.3-0.2c0.9,0,1.8,0.1,2.6,0.3s1.6,0.5,2.2,0.9c0.6,0.4,1.1,1,1.5,1.6
		s0.6,1.5,0.6,2.4v9.9c0,0.1,0,0.2,0,0.4c0,0.1,0,0.2,0.1,0.4c0.1,0.1,0.1,0.2,0.2,0.3s0.2,0.1,0.4,0.1c0.2,0,0.4-0.1,0.6-0.2
		c0.2-0.2,0.3-0.3,0.5-0.5l0.4,0.4c-0.2,0.2-0.4,0.5-0.6,0.8c-0.2,0.3-0.5,0.6-0.9,0.8c-0.3,0.3-0.8,0.5-1.2,0.7
		c-0.5,0.2-1,0.3-1.6,0.3c-0.7,0-1.4-0.2-2-0.7c-0.6-0.4-0.9-1.1-1.1-2c-0.4,0.5-0.8,0.9-1.2,1.3s-0.8,0.6-1.2,0.8
		c-0.4,0.2-0.8,0.4-1.3,0.5s-0.8,0.1-1.3,0.1c-0.6,0-1.1-0.1-1.6-0.3c-0.5-0.2-1-0.5-1.4-0.8c-0.4-0.4-0.7-0.9-1-1.5
		c-0.3-0.6-0.4-1.3-0.4-2.2c0-1.1,0.2-1.9,0.6-2.6s1-1.2,1.7-1.7c0.7-0.5,1.4-0.9,2.3-1.2s1.8-0.7,2.7-1c0.7-0.3,1.2-0.7,1.5-1.2
		c0.3-0.5,0.5-1.1,0.5-1.6c0-0.9-0.3-1.5-0.8-2.1C111.7,16.3,111,16.1,110.1,16.1z M112.9,23.7c0-0.3-0.1-0.5-0.3-0.7
		s-0.4-0.2-0.7-0.2c-0.4,0-0.8,0.1-1.2,0.3s-0.7,0.5-1,0.8s-0.5,0.8-0.7,1.3s-0.2,1.1-0.2,1.8c0,0.7,0.1,1.2,0.2,1.7
		c0.1,0.4,0.2,0.8,0.4,1.1c0.2,0.3,0.4,0.5,0.6,0.5c0.2,0.1,0.4,0.2,0.7,0.2c0.3,0,0.6-0.1,0.9-0.2c0.3-0.2,0.5-0.4,0.7-0.6
		s0.4-0.5,0.5-0.8c0.1-0.3,0.2-0.6,0.2-0.9C112.9,28,112.9,23.7,112.9,23.7z"/>
</g>
<g>
	<path class="st0" d="M122.1,21.8c0-1.2,0.2-2.2,0.6-3.1s1-1.6,1.7-2.2c0.7-0.6,1.5-1.1,2.4-1.3c0.9-0.3,1.9-0.4,2.9-0.4
		s2,0.1,2.9,0.4c0.9,0.3,1.7,0.7,2.4,1.2c0.2-0.3,0.4-0.7,0.5-1.1s0.2-0.7,0.2-1.1c0-0.5-0.1-0.9-0.4-1.2s-0.6-0.4-1-0.4V12
		c0.3-0.1,0.5-0.1,0.7-0.2c0.2-0.1,0.4-0.1,0.5-0.1c0.2,0,0.3-0.1,0.5-0.1c0.2,0,0.3,0,0.5,0c0.6,0,1,0.2,1.3,0.5s0.4,0.8,0.4,1.4
		c0,0.4-0.1,0.7-0.2,1s-0.4,0.7-0.6,1c-0.2,0.3-0.5,0.6-0.8,0.9c-0.3,0.3-0.6,0.5-0.9,0.7c0.5,0.6,0.9,1.2,1.1,2
		c0.3,0.7,0.4,1.6,0.4,2.5c0,1.2-0.2,2.3-0.6,3.2c-0.4,0.9-1,1.7-1.7,2.3s-1.5,1.1-2.4,1.4s-1.9,0.5-2.9,0.5c-0.6,0-1.2,0-1.8-0.2
		c-0.6-0.1-1.1-0.3-1.6-0.5c-0.2,0.1-0.3,0.3-0.5,0.5c-0.1,0.2-0.2,0.4-0.2,0.7c0,0.4,0.2,0.8,0.6,1c0.4,0.2,0.9,0.4,1.5,0.5
		c0.6,0.1,1.3,0.1,2.1,0.2s1.6,0.1,2.4,0.1c0.8,0,1.6,0.1,2.4,0.3s1.5,0.4,2.1,0.7c0.6,0.3,1.1,0.8,1.5,1.3s0.6,1.3,0.6,2.2
		c0,0.7-0.1,1.3-0.4,1.8c-0.3,0.5-0.6,1-1.1,1.4c-0.5,0.4-1,0.7-1.6,1c-0.6,0.3-1.3,0.5-2,0.7s-1.4,0.3-2.1,0.4
		c-0.7,0.1-1.4,0.1-2.1,0.1c-1.2,0-2.3-0.1-3.2-0.2c-0.9-0.1-1.8-0.3-2.4-0.6c-0.7-0.3-1.2-0.6-1.5-1s-0.5-0.9-0.5-1.5
		c0-0.4,0.1-0.8,0.3-1.1c0.2-0.3,0.4-0.7,0.7-0.9c0.3-0.3,0.7-0.5,1-0.8c0.4-0.2,0.8-0.4,1.2-0.6c-0.6-0.2-1.1-0.6-1.5-1.1
		c-0.4-0.5-0.6-1.2-0.6-2c0-0.4,0.1-0.8,0.2-1.2s0.3-0.7,0.6-1s0.5-0.6,0.8-0.8s0.6-0.5,0.8-0.6c-0.5-0.3-0.9-0.6-1.3-1
		s-0.7-0.9-1-1.4c-0.3-0.5-0.5-1.1-0.7-1.7C122.2,23.2,122.1,22.5,122.1,21.8z M134.7,37.3c0-0.4-0.1-0.7-0.4-0.9
		c-0.3-0.2-0.7-0.4-1.1-0.6s-1-0.3-1.6-0.3c-0.6-0.1-1.2-0.1-1.8-0.2c-0.6,0-1.2-0.1-1.8-0.1c-0.6,0-1.1-0.1-1.5-0.1
		c-0.2,0.2-0.5,0.4-0.7,0.6s-0.4,0.4-0.6,0.7c-0.2,0.2-0.3,0.5-0.4,0.7c-0.1,0.3-0.2,0.5-0.2,0.8c0,0.4,0.1,0.8,0.4,1.1
		c0.3,0.3,0.6,0.5,1,0.7c0.4,0.2,0.9,0.3,1.5,0.4s1.2,0.1,1.8,0.1c0.9,0,1.6-0.1,2.3-0.2c0.7-0.2,1.2-0.3,1.7-0.6s0.8-0.5,1.1-0.9
		C134.6,38,134.7,37.6,134.7,37.3z M132,21.6c0-0.7,0-1.3-0.1-2s-0.2-1.2-0.4-1.7c-0.2-0.5-0.4-0.9-0.7-1.2
		c-0.3-0.3-0.7-0.5-1.2-0.5s-0.9,0.2-1.2,0.5s-0.5,0.7-0.7,1.3c-0.2,0.5-0.3,1.1-0.4,1.8c-0.1,0.7-0.1,1.3-0.1,2c0,0.7,0,1.4,0.1,2
		c0.1,0.7,0.2,1.3,0.4,1.8c0.2,0.5,0.4,1,0.7,1.3c0.3,0.3,0.7,0.5,1.2,0.5s0.9-0.2,1.2-0.5s0.5-0.8,0.7-1.3c0.2-0.5,0.3-1.1,0.4-1.8
		C132,23,132,22.3,132,21.6z"/>
</g>
<g>
	<path class="st0" d="M169.6,24.1c0-1.5-0.1-2.6-0.2-3.5c-0.1-0.9-0.3-1.5-0.5-2c-0.2-0.5-0.5-0.8-0.7-0.9c-0.3-0.1-0.5-0.2-0.8-0.2
		c-0.3,0-0.6,0.1-0.9,0.3s-0.5,0.4-0.7,0.6c-0.2,0.2-0.4,0.5-0.5,0.7c-0.1,0.2-0.3,0.4-0.3,0.5v11.7c0,0.1,0,0.3-0.1,0.5
		s-0.2,0.4-0.3,0.6s-0.4,0.4-0.8,0.5c-0.4,0.1-0.8,0.2-1.5,0.2c-0.6,0-1.1-0.1-1.5-0.2s-0.6-0.3-0.8-0.5c-0.2-0.2-0.3-0.4-0.4-0.6
		s-0.1-0.4-0.1-0.5V17.7c0-0.3-0.1-0.6-0.2-0.9s-0.4-0.4-0.8-0.4c-0.2,0-0.4,0-0.5,0.1c-0.1,0.1-0.3,0.2-0.4,0.3l-0.4-0.4
		c0.3-0.2,0.6-0.4,0.9-0.6c0.3-0.2,0.7-0.4,1.1-0.6c0.4-0.2,0.8-0.3,1.2-0.4c0.4-0.1,0.9-0.2,1.4-0.2c0.8,0,1.3,0.1,1.8,0.4
		s0.7,0.6,0.9,0.9s0.3,0.7,0.4,1.1s0.1,0.7,0.1,1c0.4-0.6,0.9-1.2,1.5-1.7c0.2-0.2,0.5-0.4,0.7-0.6s0.6-0.4,0.9-0.5
		c0.3-0.2,0.6-0.3,1-0.4c0.3-0.1,0.7-0.1,1.1-0.1c0.8,0,1.5,0.1,2.1,0.4s1.1,0.8,1.6,1.5s0.7,1.6,1,2.8s0.3,2.6,0.3,4.4
		c0,1.7-0.1,3.1-0.4,4.4s-0.7,2.3-1.2,3.2c-0.5,0.9-1,1.6-1.7,2.1c-0.6,0.5-1.2,1-1.9,1.3c-0.6,0.3-1.2,0.5-1.8,0.7
		c-0.6,0.1-1.1,0.2-1.5,0.2l-0.2-0.7c0.4-0.1,0.7-0.2,1-0.4c0.3-0.2,0.6-0.4,0.8-0.8c0.2-0.3,0.5-0.8,0.6-1.3
		c0.2-0.5,0.4-1.2,0.5-1.9c0.1-0.8,0.2-1.7,0.3-2.8C169.6,26.7,169.6,25.5,169.6,24.1z"/>
</g>
<g>
	<path class="st0" d="M197.9,8.2c-0.3,0-0.7,0.1-1.1,0.2c-0.4,0.1-0.9,0.4-1.3,0.7c-0.4,0.4-0.9,0.9-1.3,1.5
		c-0.4,0.6-0.8,1.5-1.1,2.5c-0.3,1-0.6,2.3-0.8,3.7c-0.2,1.5-0.3,3.2-0.3,5.1c0,1.9,0.1,3.5,0.3,4.9c0.2,1.4,0.5,2.6,0.8,3.5
		c0.3,1,0.7,1.8,1.2,2.4c0.4,0.6,0.9,1.1,1.4,1.4c0.5,0.3,1,0.6,1.5,0.7c0.5,0.1,0.9,0.2,1.4,0.2c0.4,0,0.9-0.1,1.4-0.2
		c0.5-0.1,0.9-0.3,1.4-0.5c0.4-0.2,0.9-0.5,1.3-0.8c0.4-0.3,0.8-0.7,1.1-1.1l0.8,0.8c-0.4,0.4-0.8,0.9-1.3,1.3
		c-0.5,0.5-1.1,0.9-1.7,1.2c-0.6,0.4-1.4,0.7-2.2,0.9c-0.8,0.2-1.7,0.3-2.7,0.3c-1.5,0-2.9-0.3-4.3-0.9c-1.3-0.6-2.4-1.5-3.4-2.7
		c-1-1.2-1.7-2.8-2.3-4.7c-0.6-1.9-0.8-4.2-0.8-6.9c0-2.5,0.3-4.7,0.9-6.6s1.4-3.5,2.4-4.8c1-1.3,2.2-2.2,3.5-2.9s2.8-1,4.3-1
		c1,0,1.9,0.1,2.8,0.3c0.8,0.2,1.6,0.5,2.2,0.8c0.6,0.4,1.1,0.8,1.4,1.4c0.3,0.5,0.5,1.2,0.5,1.8c0,0.3-0.1,0.6-0.2,1
		c-0.1,0.3-0.3,0.7-0.5,0.9c-0.2,0.3-0.5,0.5-0.8,0.7c-0.3,0.2-0.7,0.3-1.1,0.3c-0.4,0-0.7-0.1-0.9-0.2s-0.4-0.4-0.4-0.6
		c-0.1-0.3-0.2-0.6-0.2-0.9c0-0.3-0.1-0.7-0.1-1.1c0-0.4,0-0.7-0.1-1.1c0-0.3-0.1-0.6-0.2-0.9c-0.1-0.3-0.3-0.5-0.5-0.6
		C198.6,8.3,198.3,8.2,197.9,8.2z"/>
</g>
<g>
	<path class="st0" d="M233.1,6.8c-0.3,0-0.6,0.1-0.9,0.2c-0.3,0.1-0.5,0.4-0.8,0.7c-0.2,0.3-0.4,0.7-0.5,1.2
		c-0.1,0.5-0.2,1.1-0.2,1.7v4.3h3.8v1.3h-3.8v13.8c0,1.6-0.2,3-0.6,4.4c-0.4,1.3-1,2.5-1.9,3.5c-0.8,1-1.9,1.7-3.1,2.3
		c-1.3,0.5-2.7,0.8-4.4,0.8c-0.6,0-1.2,0-1.7-0.2c-0.6-0.1-1-0.2-1.4-0.4s-0.8-0.4-1-0.6c-0.3-0.2-0.4-0.5-0.4-0.8
		c0-0.2,0-0.4,0.1-0.6s0.1-0.4,0.3-0.6c0.1-0.2,0.3-0.3,0.4-0.4s0.4-0.2,0.6-0.2c0.1,0,0.2,0.1,0.3,0.2c0.1,0.1,0.2,0.3,0.3,0.5
		c0.1,0.2,0.2,0.4,0.4,0.6c0.1,0.2,0.3,0.4,0.5,0.6s0.5,0.3,0.8,0.5s0.7,0.2,1.1,0.2c0.6,0,1.1-0.1,1.6-0.4c0.4-0.2,0.8-0.6,1.2-1
		c0.3-0.4,0.6-0.9,0.8-1.5s0.4-1.2,0.5-1.8c0.1-0.7,0.2-1.3,0.3-2s0.1-1.4,0.1-2.1V16.2h-3.2v-1.3h3.2v-2c0-1,0.1-1.9,0.4-2.7
		c0.3-0.8,0.6-1.4,1-1.9c0.4-0.5,0.9-1,1.4-1.3c0.5-0.3,1.1-0.6,1.6-0.8c0.5-0.2,1.1-0.3,1.6-0.4s1-0.1,1.3-0.1
		c0.8,0,1.6,0.1,2.2,0.2s1.2,0.3,1.6,0.5c0.4,0.2,0.8,0.4,1,0.7s0.3,0.5,0.3,0.8c0,0.2,0,0.4-0.1,0.6c-0.1,0.2-0.1,0.4-0.3,0.6
		c-0.1,0.2-0.3,0.3-0.4,0.4s-0.4,0.2-0.6,0.2c-0.1,0-0.2-0.1-0.4-0.2c-0.1-0.1-0.2-0.3-0.3-0.5c-0.1-0.2-0.2-0.4-0.4-0.7
		c-0.1-0.2-0.3-0.5-0.5-0.7c-0.2-0.2-0.4-0.4-0.7-0.5S233.4,6.8,233.1,6.8z"/>
</g>
<g>
	<path class="st0" d="M244.7,6.8c-0.3,0-0.6,0.1-0.9,0.2c-0.3,0.1-0.5,0.4-0.8,0.7c-0.2,0.3-0.4,0.7-0.5,1.2
		c-0.1,0.5-0.2,1.1-0.2,1.7v4.3h3.8v1.3h-3.8v13.8c0,1.6-0.2,3-0.6,4.4c-0.4,1.3-1,2.5-1.9,3.5c-0.8,1-1.9,1.7-3.1,2.3
		c-1.3,0.5-2.7,0.8-4.4,0.8c-0.6,0-1.2,0-1.7-0.2c-0.6-0.1-1-0.2-1.4-0.4s-0.8-0.4-1-0.6c-0.3-0.2-0.4-0.5-0.4-0.8
		c0-0.2,0-0.4,0.1-0.6s0.1-0.4,0.3-0.6c0.1-0.2,0.3-0.3,0.4-0.4s0.4-0.2,0.6-0.2c0.1,0,0.2,0.1,0.3,0.2c0.1,0.1,0.2,0.3,0.3,0.5
		c0.1,0.2,0.2,0.4,0.4,0.6c0.1,0.2,0.3,0.4,0.5,0.6s0.5,0.3,0.8,0.5s0.7,0.2,1.1,0.2c0.6,0,1.1-0.1,1.6-0.4c0.4-0.2,0.8-0.6,1.2-1
		c0.3-0.4,0.6-0.9,0.8-1.5s0.4-1.2,0.5-1.8c0.1-0.7,0.2-1.3,0.3-2s0.1-1.4,0.1-2.1V16.2h-3.2v-1.3h3.2v-2c0-1,0.1-1.9,0.4-2.7
		c0.3-0.8,0.6-1.4,1-1.9c0.4-0.5,0.9-1,1.4-1.3c0.5-0.3,1.1-0.6,1.6-0.8c0.5-0.2,1.1-0.3,1.6-0.4s1-0.1,1.3-0.1
		c0.8,0,1.6,0.1,2.2,0.2s1.2,0.3,1.6,0.5c0.4,0.2,0.8,0.4,1,0.7s0.3,0.5,0.3,0.8c0,0.2,0,0.4-0.1,0.6c-0.1,0.2-0.1,0.4-0.3,0.6
		c-0.1,0.2-0.3,0.3-0.4,0.4s-0.4,0.2-0.6,0.2c-0.1,0-0.2-0.1-0.4-0.2s-0.2-0.3-0.3-0.5c-0.1-0.2-0.2-0.4-0.4-0.7
		c-0.1-0.2-0.3-0.5-0.5-0.7c-0.2-0.2-0.4-0.4-0.7-0.5C245.4,6.9,245.1,6.8,244.7,6.8z"/>
</g>
<g>
	<path class="st0" d="M252.2,24.8c0,0.4,0.1,0.8,0.2,1.2c0.1,0.4,0.3,0.9,0.5,1.3c0.2,0.4,0.5,0.9,0.8,1.3c0.3,0.4,0.7,0.8,1.1,1.1
		s0.9,0.6,1.3,0.8c0.5,0.2,1,0.3,1.6,0.3c0.4,0,0.8,0,1.1-0.1c0.4-0.1,0.7-0.2,1-0.4c0.3-0.2,0.6-0.4,0.9-0.6s0.6-0.5,0.8-0.7
		l0.4,0.4c-0.3,0.4-0.6,0.8-1,1.2s-0.9,0.8-1.5,1.2c-0.6,0.4-1.3,0.7-2.1,0.9c-0.8,0.3-1.7,0.4-2.7,0.4c-1,0-2-0.2-3-0.5
		s-1.8-0.9-2.6-1.6c-0.7-0.7-1.3-1.6-1.8-2.7s-0.7-2.4-0.7-3.8c0-1.1,0.1-2,0.4-2.9c0.3-0.9,0.6-1.7,1.1-2.4c0.5-0.7,1-1.3,1.6-1.9
		s1.3-1,1.9-1.3c0.7-0.4,1.4-0.6,2.1-0.8c0.7-0.2,1.4-0.3,2-0.3c0.9,0,1.6,0.1,2.3,0.3s1.2,0.4,1.6,0.8c0.4,0.3,0.7,0.7,1,1.1
		c0.2,0.4,0.3,0.9,0.3,1.3c0,0.5-0.2,1-0.5,1.5c-0.3,0.4-0.7,0.8-1.3,1.1L252.2,24.8z M255.7,21.2c0.1-0.1,0.3-0.2,0.4-0.3
		c0.1-0.1,0.2-0.2,0.2-0.3c0.1-0.1,0.1-0.3,0.1-0.5s0-0.4,0-0.7c0-0.3,0-0.6-0.1-1c-0.1-0.4-0.2-0.7-0.3-1s-0.3-0.6-0.6-0.8
		c-0.2-0.2-0.5-0.3-0.8-0.3c-0.4,0-0.8,0.1-1.1,0.4c-0.3,0.3-0.5,0.6-0.7,1s-0.3,0.9-0.4,1.4c-0.1,0.5-0.2,1-0.3,1.5
		c-0.1,0.5-0.1,1-0.1,1.5c0,0.5,0,0.9,0,1.2L255.7,21.2z"/>
</g>
<g>
	<path class="st0" d="M268.8,24.8c0,0.4,0,0.8,0.2,1.2c0.1,0.4,0.3,0.9,0.5,1.3c0.2,0.4,0.5,0.9,0.8,1.3c0.3,0.4,0.7,0.8,1.1,1.1
		s0.9,0.6,1.3,0.8s1,0.3,1.6,0.3c0.4,0,0.8,0,1.1-0.1c0.4-0.1,0.7-0.2,1-0.4c0.3-0.2,0.6-0.4,0.9-0.6s0.6-0.5,0.8-0.7l0.4,0.4
		c-0.3,0.4-0.6,0.8-1,1.2s-0.9,0.8-1.5,1.2c-0.6,0.4-1.3,0.7-2.1,0.9c-0.8,0.3-1.7,0.4-2.7,0.4c-1,0-2-0.2-3-0.5s-1.8-0.9-2.6-1.6
		c-0.7-0.7-1.3-1.6-1.8-2.7s-0.7-2.4-0.7-3.8c0-1.1,0.1-2,0.4-2.9c0.3-0.9,0.6-1.7,1.1-2.4s1-1.3,1.6-1.9s1.3-1,1.9-1.3
		c0.7-0.4,1.4-0.6,2.1-0.8c0.7-0.2,1.4-0.3,2-0.3c0.9,0,1.6,0.1,2.3,0.3s1.2,0.4,1.6,0.8c0.4,0.3,0.7,0.7,1,1.1
		c0.2,0.4,0.3,0.9,0.3,1.3c0,0.5-0.2,1-0.5,1.5c-0.3,0.4-0.7,0.8-1.3,1.1L268.8,24.8z M272.3,21.2c0.1-0.1,0.3-0.2,0.4-0.3
		s0.2-0.2,0.2-0.3c0.1-0.1,0.1-0.3,0.1-0.5s0-0.4,0-0.7c0-0.3,0-0.6-0.1-1c-0.1-0.4-0.2-0.7-0.3-1s-0.3-0.6-0.6-0.8
		c-0.2-0.2-0.5-0.3-0.8-0.3c-0.4,0-0.8,0.1-1.1,0.4c-0.3,0.3-0.5,0.6-0.7,1s-0.3,0.9-0.5,1.4c-0.1,0.5-0.2,1-0.3,1.5
		c-0.1,0.5-0.1,1-0.1,1.5c0,0.5,0,0.9,0,1.2L272.3,21.2z"/>
</g>
<g>
	<g>
		<path class="st0" d="M88.7,54.8c0,0.1,0,0.2,0,0.3s0,0.1,0,0.2s0,0.1-0.1,0.1c0,0-0.1,0.1-0.1,0.2c-0.1,0.1-0.2,0.2-0.4,0.3
			s-0.4,0.2-0.7,0.3c-0.3,0.1-0.6,0.2-1,0.3s-0.8,0.1-1.2,0.1c-0.7,0-1.4-0.1-2-0.4c-0.6-0.3-1.1-0.6-1.5-1.1s-0.7-1.1-1-1.8
			s-0.3-1.5-0.3-2.4c0-0.9,0.1-1.8,0.4-2.5s0.6-1.4,1-1.9c0.4-0.5,1-0.9,1.6-1.2c0.6-0.3,1.3-0.4,2-0.4c0.3,0,0.7,0,1,0.1
			s0.6,0.1,0.9,0.2s0.5,0.2,0.7,0.3s0.3,0.2,0.4,0.3c0.1,0.1,0.1,0.1,0.2,0.2c0,0,0,0.1,0.1,0.1c0,0.1,0,0.1,0,0.2s0,0.2,0,0.3
			c0,0.1,0,0.2,0,0.3c0,0.1,0,0.2-0.1,0.2c0,0.1-0.1,0.1-0.1,0.1c0,0-0.1,0-0.1,0c-0.1,0-0.2-0.1-0.3-0.2c-0.2-0.1-0.3-0.2-0.6-0.4
			s-0.5-0.3-0.8-0.4c-0.3-0.1-0.7-0.2-1.2-0.2c-0.5,0-1,0.1-1.4,0.3S83.3,47,83,47.4s-0.5,0.9-0.7,1.4c-0.2,0.6-0.2,1.2-0.2,1.9
			c0,0.7,0.1,1.4,0.2,1.9c0.2,0.5,0.4,1,0.7,1.4s0.7,0.7,1.1,0.8s0.9,0.3,1.4,0.3c0.4,0,0.8-0.1,1.2-0.2c0.3-0.1,0.6-0.2,0.9-0.4
			c0.2-0.1,0.4-0.3,0.6-0.4c0.2-0.1,0.3-0.2,0.4-0.2c0,0,0.1,0,0.1,0s0.1,0,0.1,0.1s0,0.1,0,0.2C88.7,54.5,88.7,54.6,88.7,54.8z"/>
	</g>
	<g>
		<path class="st0" d="M97.9,52.1c0,0.6-0.1,1.2-0.3,1.8s-0.4,1-0.8,1.4c-0.3,0.4-0.8,0.7-1.3,0.9c-0.5,0.2-1.1,0.3-1.8,0.3
			c-0.7,0-1.2-0.1-1.7-0.3c-0.5-0.2-0.9-0.5-1.2-0.8s-0.6-0.8-0.7-1.3C90.1,53.6,90,53,90,52.3c0-0.6,0.1-1.2,0.3-1.8
			c0.2-0.5,0.4-1,0.8-1.4c0.3-0.4,0.8-0.7,1.3-0.9c0.5-0.2,1.1-0.3,1.8-0.3c0.7,0,1.2,0.1,1.7,0.3c0.5,0.2,0.9,0.5,1.2,0.8
			s0.6,0.8,0.7,1.3C97.8,50.9,97.9,51.5,97.9,52.1z M96.4,52.2c0-0.4,0-0.8-0.1-1.2c-0.1-0.4-0.2-0.7-0.4-1s-0.4-0.5-0.7-0.7
			c-0.3-0.2-0.7-0.3-1.2-0.3c-0.4,0-0.8,0.1-1.1,0.2c-0.3,0.2-0.6,0.4-0.8,0.7c-0.2,0.3-0.3,0.6-0.4,1s-0.2,0.8-0.2,1.3
			c0,0.4,0,0.8,0.1,1.2s0.2,0.7,0.4,1c0.2,0.3,0.4,0.5,0.8,0.7c0.3,0.2,0.7,0.3,1.2,0.3c0.4,0,0.8-0.1,1.1-0.2
			c0.3-0.2,0.6-0.4,0.8-0.6s0.3-0.6,0.4-1C96.3,53.1,96.4,52.7,96.4,52.2z"/>
	</g>
	<g>
		<path class="st0" d="M109.3,45c0,0.2,0,0.3,0,0.4s-0.1,0.1-0.2,0.1c-0.1,0-0.1,0-0.2,0c-0.1,0-0.1,0-0.2-0.1
			c-0.1,0-0.2-0.1-0.3-0.1c-0.1,0-0.3,0-0.4,0c-0.4,0-0.7,0.2-0.9,0.5s-0.3,0.8-0.3,1.4V48h1.8c0.1,0,0.1,0,0.1,0
			c0,0,0.1,0.1,0.1,0.1c0,0,0.1,0.1,0.1,0.2c0,0.1,0,0.2,0,0.3c0,0.2,0,0.4-0.1,0.5s-0.1,0.1-0.2,0.1h-1.8v6.9c0,0,0,0.1,0,0.1
			c0,0-0.1,0.1-0.1,0.1c-0.1,0-0.1,0-0.2,0c-0.1,0-0.2,0-0.3,0s-0.3,0-0.3,0c-0.1,0-0.2,0-0.2,0c-0.1,0-0.1,0-0.1-0.1
			c0,0,0-0.1,0-0.1v-6.9h-3.6v6.9c0,0,0,0.1,0,0.1c0,0-0.1,0.1-0.1,0.1c-0.1,0-0.1,0-0.2,0c-0.1,0-0.2,0-0.3,0s-0.3,0-0.3,0
			c-0.1,0-0.2,0-0.2,0c-0.1,0-0.1,0-0.1-0.1c0,0,0-0.1,0-0.1v-6.9h-1.1c-0.1,0-0.2,0-0.2-0.1S99,48.8,99,48.6c0-0.1,0-0.2,0-0.3
			c0-0.1,0-0.1,0.1-0.2s0.1-0.1,0.1-0.1c0,0,0.1,0,0.1,0h1.1v-0.8c0-0.5,0.1-1,0.2-1.4c0.1-0.4,0.3-0.7,0.5-1s0.5-0.4,0.8-0.6
			c0.3-0.1,0.7-0.2,1.1-0.2c0.3,0,0.5,0,0.7,0.1c0.2,0,0.3,0.1,0.5,0.1c0.1,0,0.1,0,0.1,0.1c0,0,0.1,0.1,0.1,0.1
			c0,0.1,0,0.1,0.1,0.2s0,0.2,0,0.3c0,0.2,0,0.3,0,0.4c0,0.1-0.1,0.1-0.2,0.1c-0.1,0-0.1,0-0.2,0c-0.1,0-0.1-0.1-0.2-0.1
			c-0.1,0-0.2-0.1-0.3-0.1s-0.3,0-0.4,0c-0.4,0-0.7,0.2-0.9,0.5c-0.2,0.3-0.3,0.8-0.3,1.4V48h3.6v-0.8c0-0.5,0.1-1,0.2-1.4
			c0.1-0.4,0.3-0.7,0.5-1c0.2-0.3,0.5-0.4,0.8-0.6c0.3-0.1,0.7-0.2,1.1-0.2c0.3,0,0.5,0,0.7,0.1c0.2,0,0.4,0.1,0.5,0.1
			c0.1,0,0.1,0,0.1,0.1c0,0,0.1,0.1,0.1,0.1c0,0.1,0,0.1,0,0.2C109.3,44.8,109.3,44.9,109.3,45z"/>
	</g>
	<g>
		<path class="st0" d="M117.3,51.9c0,0.2-0.1,0.4-0.2,0.5c-0.1,0.1-0.3,0.1-0.4,0.1h-5.2c0,0.4,0,0.8,0.1,1.2s0.2,0.7,0.4,0.9
			c0.2,0.3,0.5,0.5,0.8,0.6s0.7,0.2,1.2,0.2c0.4,0,0.7,0,1-0.1c0.3-0.1,0.6-0.1,0.8-0.2c0.2-0.1,0.4-0.1,0.5-0.2
			c0.1-0.1,0.2-0.1,0.3-0.1c0,0,0.1,0,0.1,0s0.1,0,0.1,0.1c0,0,0,0.1,0,0.2s0,0.2,0,0.3c0,0.1,0,0.1,0,0.2s0,0.1,0,0.2
			c0,0,0,0.1,0,0.1c0,0-0.1,0.1-0.1,0.1s-0.1,0.1-0.3,0.2s-0.4,0.1-0.6,0.2c-0.3,0.1-0.5,0.1-0.9,0.2c-0.3,0.1-0.7,0.1-1.1,0.1
			c-0.7,0-1.2-0.1-1.7-0.3s-0.9-0.5-1.2-0.8s-0.6-0.8-0.8-1.3c-0.2-0.5-0.3-1.2-0.3-1.9c0-0.7,0.1-1.3,0.3-1.8
			c0.2-0.5,0.4-1,0.8-1.4s0.7-0.7,1.2-0.9s1-0.3,1.6-0.3c0.6,0,1.2,0.1,1.6,0.3c0.4,0.2,0.8,0.5,1.1,0.8c0.3,0.3,0.5,0.7,0.6,1.2
			c0.1,0.5,0.2,0.9,0.2,1.5L117.3,51.9L117.3,51.9z M115.8,51.4c0-0.8-0.2-1.4-0.5-1.8s-0.9-0.7-1.6-0.7c-0.4,0-0.7,0.1-0.9,0.2
			c-0.3,0.1-0.5,0.3-0.7,0.5c-0.2,0.2-0.3,0.5-0.4,0.8s-0.2,0.6-0.2,0.9L115.8,51.4L115.8,51.4z"/>
	</g>
	<g>
		<path class="st0" d="M126.2,51.9c0,0.2-0.1,0.4-0.2,0.5c-0.1,0.1-0.3,0.1-0.4,0.1h-5.2c0,0.4,0,0.8,0.1,1.2s0.2,0.7,0.4,0.9
			c0.2,0.3,0.5,0.5,0.8,0.6s0.7,0.2,1.2,0.2c0.4,0,0.7,0,1-0.1c0.3-0.1,0.6-0.1,0.8-0.2c0.2-0.1,0.4-0.1,0.5-0.2
			c0.1-0.1,0.2-0.1,0.3-0.1c0,0,0.1,0,0.1,0s0.1,0,0.1,0.1c0,0,0,0.1,0,0.2s0,0.2,0,0.3c0,0.1,0,0.1,0,0.2s0,0.1,0,0.2
			c0,0,0,0.1,0,0.1c0,0-0.1,0.1-0.1,0.1s-0.1,0.1-0.3,0.2s-0.4,0.1-0.6,0.2c-0.3,0.1-0.5,0.1-0.9,0.2c-0.3,0.1-0.7,0.1-1.1,0.1
			c-0.7,0-1.2-0.1-1.7-0.3s-0.9-0.5-1.2-0.8s-0.6-0.8-0.8-1.3c-0.2-0.5-0.3-1.2-0.3-1.9c0-0.7,0.1-1.3,0.3-1.8
			c0.2-0.5,0.4-1,0.8-1.4s0.7-0.7,1.2-0.9s1-0.3,1.6-0.3c0.6,0,1.2,0.1,1.6,0.3c0.4,0.2,0.8,0.5,1.1,0.8c0.3,0.3,0.5,0.7,0.6,1.2
			c0.1,0.5,0.2,0.9,0.2,1.5L126.2,51.9L126.2,51.9z M124.7,51.4c0-0.8-0.2-1.4-0.5-1.8s-0.9-0.7-1.6-0.7c-0.4,0-0.7,0.1-0.9,0.2
			c-0.3,0.1-0.5,0.3-0.7,0.5c-0.2,0.2-0.3,0.5-0.4,0.8s-0.2,0.6-0.2,0.9L124.7,51.4L124.7,51.4z"/>
	</g>
	<g>
		<path class="st0" d="M139.7,52.1c0,0.7-0.1,1.3-0.2,1.8s-0.4,1-0.7,1.4c-0.3,0.4-0.6,0.7-1.1,0.9c-0.4,0.2-0.9,0.3-1.4,0.3
			c-0.3,0-0.5,0-0.7-0.1c-0.2,0-0.4-0.1-0.6-0.2c-0.2-0.1-0.4-0.3-0.6-0.4s-0.4-0.4-0.6-0.6v1c0,0,0,0.1,0,0.1c0,0-0.1,0.1-0.1,0.1
			s-0.1,0-0.2,0s-0.2,0-0.3,0c-0.1,0-0.2,0-0.3,0c-0.1,0-0.1,0-0.2,0s-0.1,0-0.1-0.1s0-0.1,0-0.1V44.4c0,0,0-0.1,0-0.1
			s0.1-0.1,0.1-0.1c0.1,0,0.1,0,0.2,0s0.2,0,0.4,0c0.1,0,0.3,0,0.4,0c0.1,0,0.2,0,0.2,0s0.1,0,0.1,0.1s0,0.1,0,0.1v4.7
			c0.2-0.2,0.5-0.4,0.7-0.6c0.2-0.2,0.4-0.3,0.6-0.4c0.2-0.1,0.4-0.2,0.6-0.2c0.2,0,0.4-0.1,0.7-0.1c0.6,0,1.1,0.1,1.5,0.3
			s0.7,0.5,1,0.9c0.3,0.4,0.4,0.8,0.6,1.3C139.7,51,139.7,51.5,139.7,52.1z M138.2,52.3c0-0.4,0-0.8-0.1-1.2s-0.2-0.7-0.3-1
			c-0.1-0.3-0.4-0.5-0.6-0.7s-0.6-0.3-0.9-0.3c-0.2,0-0.4,0-0.6,0.1c-0.2,0-0.4,0.1-0.6,0.3s-0.4,0.3-0.6,0.5
			c-0.2,0.2-0.4,0.4-0.6,0.7v3.2c0.4,0.5,0.8,0.9,1.1,1.1s0.7,0.4,1.1,0.4c0.4,0,0.7-0.1,0.9-0.3c0.3-0.2,0.5-0.4,0.6-0.7
			s0.3-0.6,0.4-1C138.2,53,138.2,52.6,138.2,52.3z"/>
	</g>
	<g>
		<path class="st0" d="M148.6,51.9c0,0.2-0.1,0.4-0.2,0.5c-0.1,0.1-0.3,0.1-0.4,0.1h-5.2c0,0.4,0,0.8,0.1,1.2
			c0.1,0.3,0.2,0.7,0.4,0.9c0.2,0.3,0.5,0.5,0.8,0.6s0.7,0.2,1.2,0.2c0.4,0,0.7,0,1-0.1c0.3-0.1,0.6-0.1,0.8-0.2
			c0.2-0.1,0.4-0.1,0.5-0.2c0.1-0.1,0.2-0.1,0.3-0.1c0,0,0.1,0,0.1,0s0.1,0,0.1,0.1c0,0,0,0.1,0,0.2s0,0.2,0,0.3c0,0.1,0,0.1,0,0.2
			s0,0.1,0,0.2c0,0,0,0.1,0,0.1c0,0-0.1,0.1-0.1,0.1S148,56,147.9,56c-0.2,0.1-0.4,0.1-0.6,0.2c-0.3,0.1-0.5,0.1-0.9,0.2
			c-0.3,0.1-0.7,0.1-1.1,0.1c-0.6,0-1.2-0.1-1.7-0.3s-0.9-0.5-1.2-0.8s-0.6-0.8-0.8-1.3c-0.2-0.5-0.3-1.2-0.3-1.9
			c0-0.7,0.1-1.3,0.3-1.8c0.2-0.5,0.4-1,0.8-1.4s0.7-0.7,1.2-0.9s1-0.3,1.6-0.3c0.6,0,1.1,0.1,1.6,0.3c0.4,0.2,0.8,0.5,1.1,0.8
			c0.3,0.3,0.5,0.7,0.6,1.2c0.1,0.5,0.2,0.9,0.2,1.5L148.6,51.9L148.6,51.9z M147.2,51.4c0-0.8-0.1-1.4-0.5-1.8s-0.9-0.7-1.6-0.7
			c-0.4,0-0.7,0.1-0.9,0.2s-0.5,0.3-0.7,0.5c-0.2,0.2-0.3,0.5-0.4,0.8c-0.1,0.3-0.2,0.6-0.2,0.9L147.2,51.4L147.2,51.4z"/>
	</g>
	<g>
		<path class="st0" d="M156.8,56.2c0,0.1,0,0.1-0.1,0.2s-0.1,0.1-0.2,0.1s-0.2,0-0.4,0c-0.1,0-0.3,0-0.4,0s-0.2,0-0.2-0.1
			c0,0-0.1-0.1-0.1-0.2v-0.8c-0.4,0.4-0.7,0.7-1.1,0.9s-0.9,0.3-1.4,0.3c-0.4,0-0.8,0-1.1-0.2c-0.3-0.1-0.6-0.3-0.9-0.5
			c-0.2-0.2-0.4-0.5-0.6-0.8c-0.1-0.3-0.2-0.6-0.2-1c0-0.4,0.1-0.8,0.3-1.2c0.2-0.3,0.4-0.6,0.8-0.8s0.8-0.4,1.3-0.5
			c0.5-0.1,1-0.2,1.7-0.2h1.1v-0.6c0-0.3,0-0.6-0.1-0.8c-0.1-0.2-0.2-0.4-0.3-0.6s-0.3-0.3-0.6-0.3c-0.2-0.1-0.5-0.1-0.8-0.1
			c-0.4,0-0.7,0-1,0.1c-0.3,0.1-0.5,0.2-0.8,0.3c-0.2,0.1-0.4,0.2-0.5,0.3c-0.1,0.1-0.3,0.1-0.3,0.1c-0.1,0-0.1,0-0.1,0
			c0,0-0.1-0.1-0.1-0.1c0,0-0.1-0.1-0.1-0.2s0-0.2,0-0.2c0-0.2,0-0.3,0-0.3c0-0.1,0.1-0.2,0.1-0.2c0.1-0.1,0.2-0.2,0.4-0.3
			c0.2-0.1,0.4-0.2,0.7-0.3c0.3-0.1,0.5-0.2,0.8-0.2s0.6-0.1,0.9-0.1c0.6,0,1.1,0.1,1.4,0.2c0.4,0.1,0.7,0.3,1,0.6s0.4,0.6,0.5,0.9
			c0.1,0.4,0.2,0.8,0.2,1.3L156.8,56.2L156.8,56.2z M155.4,52.6h-1.2c-0.4,0-0.7,0-1,0.1c-0.3,0.1-0.5,0.2-0.7,0.3s-0.3,0.3-0.4,0.5
			s-0.1,0.4-0.1,0.6c0,0.4,0.1,0.7,0.4,1c0.3,0.2,0.6,0.4,1.1,0.4c0.4,0,0.7-0.1,1.1-0.3c0.3-0.2,0.7-0.5,1-0.9L155.4,52.6
			L155.4,52.6z"/>
	</g>
	<g>
		<path class="st0" d="M166.3,56.2c0,0,0,0.1,0,0.1c0,0-0.1,0.1-0.1,0.1s-0.1,0-0.2,0s-0.2,0-0.4,0c-0.1,0-0.3,0-0.4,0
			c-0.1,0-0.2,0-0.2,0s-0.1,0-0.1-0.1c0,0,0-0.1,0-0.1v-4.6c0-0.5,0-0.8-0.1-1.1c-0.1-0.3-0.2-0.5-0.3-0.7c-0.1-0.2-0.3-0.3-0.5-0.5
			s-0.5-0.2-0.7-0.2c-0.4,0-0.7,0.1-1.1,0.4s-0.7,0.6-1.1,1.1v5.5c0,0,0,0.1,0,0.1c0,0-0.1,0.1-0.1,0.1s-0.1,0-0.2,0s-0.2,0-0.4,0
			c-0.1,0-0.3,0-0.4,0c-0.1,0-0.2,0-0.2,0c-0.1,0-0.1,0-0.1-0.1c0,0,0-0.1,0-0.1v-7.9c0,0,0-0.1,0-0.1s0.1-0.1,0.1-0.1
			c0.1,0,0.1,0,0.2,0s0.2,0,0.3,0s0.2,0,0.3,0s0.1,0,0.2,0c0.1,0,0.1,0.1,0.1,0.1s0,0.1,0,0.1v1c0.4-0.5,0.9-0.9,1.3-1.1
			s0.9-0.3,1.3-0.3c0.5,0,1,0.1,1.3,0.3s0.6,0.4,0.9,0.7c0.2,0.3,0.4,0.7,0.5,1c0.1,0.4,0.1,0.9,0.1,1.4V56.2z"/>
	</g>
	<g>
		<path class="st0" d="M177.9,54c0,0.4-0.1,0.8-0.2,1.1c-0.1,0.3-0.4,0.6-0.6,0.8c-0.3,0.2-0.6,0.4-1,0.5c-0.4,0.1-0.8,0.2-1.3,0.2
			c-0.3,0-0.6,0-0.8-0.1c-0.3,0-0.5-0.1-0.7-0.2s-0.4-0.1-0.5-0.2s-0.2-0.1-0.3-0.2c-0.1-0.1-0.1-0.1-0.1-0.3s0-0.3,0-0.4
			c0-0.1,0-0.2,0-0.3c0-0.1,0-0.1,0-0.2c0,0,0-0.1,0.1-0.1c0,0,0.1,0,0.1,0c0.1,0,0.2,0,0.3,0.1c0.1,0.1,0.3,0.2,0.5,0.3
			c0.2,0.1,0.4,0.2,0.6,0.3c0.3,0.1,0.5,0.1,0.9,0.1c0.3,0,0.5,0,0.7-0.1c0.2,0,0.4-0.1,0.5-0.2c0.1-0.1,0.3-0.2,0.3-0.4
			s0.1-0.3,0.1-0.6c0-0.2-0.1-0.4-0.2-0.6s-0.3-0.3-0.4-0.4c-0.2-0.1-0.4-0.2-0.6-0.3c-0.2-0.1-0.5-0.2-0.7-0.3
			c-0.3-0.1-0.5-0.2-0.7-0.3c-0.2-0.1-0.4-0.3-0.6-0.5s-0.3-0.4-0.4-0.7s-0.2-0.5-0.2-0.9c0-0.3,0.1-0.6,0.2-0.9s0.3-0.5,0.5-0.8
			c0.2-0.2,0.5-0.4,0.9-0.5c0.4-0.1,0.8-0.2,1.3-0.2c0.2,0,0.4,0,0.6,0c0.2,0,0.4,0.1,0.6,0.1c0.2,0,0.3,0.1,0.4,0.2
			c0.1,0.1,0.2,0.1,0.3,0.2c0.1,0,0.1,0.1,0.1,0.1c0,0,0,0.1,0,0.1c0,0,0,0.1,0,0.2s0,0.1,0,0.2c0,0.1,0,0.2,0,0.3s0,0.1,0,0.2
			c0,0-0.1,0.1-0.1,0.1c0,0-0.1,0-0.1,0c-0.1,0-0.1,0-0.2-0.1c-0.1-0.1-0.2-0.1-0.4-0.2c-0.2-0.1-0.3-0.1-0.6-0.2
			c-0.2-0.1-0.5-0.1-0.7-0.1c-0.3,0-0.5,0-0.6,0.1c-0.2,0.1-0.3,0.1-0.5,0.2c-0.1,0.1-0.2,0.2-0.3,0.4s-0.1,0.3-0.1,0.5
			c0,0.2,0.1,0.4,0.2,0.6s0.3,0.3,0.5,0.4s0.4,0.2,0.6,0.3c0.2,0.1,0.5,0.2,0.7,0.3c0.3,0.1,0.5,0.2,0.7,0.3
			c0.2,0.1,0.5,0.3,0.6,0.5c0.2,0.2,0.3,0.4,0.4,0.6C177.9,53.4,177.9,53.7,177.9,54z"/>
	</g>
	<g>
		<path class="st0" d="M186.8,56.2c0,0,0,0.1,0,0.1c0,0-0.1,0.1-0.1,0.1s-0.1,0-0.2,0s-0.2,0-0.4,0c-0.1,0-0.3,0-0.4,0
			c-0.1,0-0.2,0-0.2,0s-0.1,0-0.1-0.1c0,0,0-0.1,0-0.1v-4.6c0-0.5,0-0.8-0.1-1.1c-0.1-0.3-0.2-0.5-0.3-0.7c-0.1-0.2-0.3-0.3-0.5-0.5
			s-0.5-0.2-0.7-0.2c-0.4,0-0.7,0.1-1.1,0.4s-0.7,0.6-1.1,1.1v5.5c0,0,0,0.1,0,0.1c0,0-0.1,0.1-0.1,0.1s-0.1,0-0.2,0s-0.2,0-0.4,0
			c-0.1,0-0.3,0-0.4,0c-0.1,0-0.2,0-0.2,0c-0.1,0-0.1,0-0.1-0.1c0,0,0-0.1,0-0.1V44.4c0,0,0-0.1,0-0.1s0.1-0.1,0.1-0.1
			c0.1,0,0.1,0,0.2,0s0.2,0,0.4,0c0.1,0,0.3,0,0.4,0c0.1,0,0.2,0,0.2,0s0.1,0,0.1,0.1s0,0.1,0,0.1v4.7c0.4-0.4,0.8-0.8,1.3-1
			c0.4-0.2,0.9-0.3,1.3-0.3c0.5,0,1,0.1,1.3,0.3s0.6,0.4,0.9,0.7c0.2,0.3,0.4,0.7,0.5,1c0.1,0.4,0.1,0.9,0.1,1.5L186.8,56.2
			L186.8,56.2z"/>
	</g>
	<g>
		<path class="st0" d="M196.8,52.1c0,0.6-0.1,1.2-0.3,1.8s-0.4,1-0.8,1.4c-0.3,0.4-0.8,0.7-1.3,0.9c-0.5,0.2-1.1,0.3-1.8,0.3
			c-0.6,0-1.2-0.1-1.7-0.3c-0.5-0.2-0.9-0.5-1.2-0.8s-0.6-0.8-0.7-1.3c-0.2-0.5-0.2-1.1-0.2-1.8c0-0.6,0.1-1.2,0.3-1.8
			c0.2-0.5,0.4-1,0.8-1.4c0.3-0.4,0.8-0.7,1.3-0.9c0.5-0.2,1.1-0.3,1.8-0.3c0.6,0,1.2,0.1,1.7,0.3c0.5,0.2,0.9,0.5,1.2,0.8
			s0.6,0.8,0.7,1.3C196.7,50.9,196.8,51.5,196.8,52.1z M195.3,52.2c0-0.4,0-0.8-0.1-1.2c-0.1-0.4-0.2-0.7-0.4-1s-0.4-0.5-0.7-0.7
			c-0.3-0.2-0.7-0.3-1.2-0.3c-0.4,0-0.8,0.1-1.1,0.2c-0.3,0.2-0.6,0.4-0.8,0.7c-0.2,0.3-0.4,0.6-0.4,1c-0.1,0.4-0.1,0.8-0.1,1.3
			c0,0.4,0,0.8,0.1,1.2s0.2,0.7,0.4,1c0.2,0.3,0.4,0.5,0.8,0.7c0.3,0.2,0.7,0.3,1.2,0.3c0.4,0,0.8-0.1,1.1-0.2
			c0.3-0.2,0.6-0.4,0.8-0.6s0.4-0.6,0.4-1C195.3,53.1,195.3,52.7,195.3,52.2z"/>
	</g>
	<g>
		<path class="st0" d="M206.2,52.1c0,0.7-0.1,1.3-0.2,1.9s-0.4,1-0.7,1.4c-0.3,0.4-0.6,0.7-1.1,0.9c-0.4,0.2-0.9,0.3-1.5,0.3
			c-0.2,0-0.4,0-0.6-0.1s-0.4-0.1-0.6-0.2c-0.2-0.1-0.4-0.2-0.6-0.4s-0.4-0.3-0.6-0.5v4c0,0,0,0.1,0,0.1c0,0-0.1,0.1-0.1,0.1
			c-0.1,0-0.1,0-0.2,0s-0.2,0-0.4,0c-0.1,0-0.3,0-0.4,0s-0.2,0-0.2,0c-0.1,0-0.1,0-0.1-0.1c0,0,0-0.1,0-0.1v-11c0,0,0-0.1,0-0.1
			s0.1-0.1,0.1-0.1c0.1,0,0.1,0,0.2,0s0.2,0,0.3,0c0.1,0,0.2,0,0.3,0s0.1,0,0.2,0c0.1,0,0.1,0,0.1,0.1c0,0,0,0.1,0,0.1v1.1
			c0.2-0.3,0.5-0.5,0.7-0.6s0.4-0.3,0.7-0.5c0.2-0.1,0.5-0.2,0.7-0.3c0.2-0.1,0.5-0.1,0.8-0.1c0.6,0,1.1,0.1,1.5,0.3
			c0.4,0.2,0.7,0.5,1,0.9c0.3,0.4,0.4,0.8,0.6,1.3C206.1,51,206.2,51.5,206.2,52.1z M204.7,52.3c0-0.4,0-0.8-0.1-1.2
			c-0.1-0.4-0.2-0.7-0.3-1c-0.1-0.3-0.4-0.5-0.6-0.7c-0.3-0.2-0.6-0.3-0.9-0.3c-0.2,0-0.4,0-0.6,0.1s-0.4,0.1-0.6,0.3
			s-0.4,0.3-0.6,0.5c-0.2,0.2-0.4,0.4-0.6,0.7v3.1c0.4,0.5,0.8,0.9,1.1,1.1c0.4,0.3,0.7,0.4,1.1,0.4c0.4,0,0.7-0.1,0.9-0.3
			c0.3-0.2,0.5-0.4,0.6-0.7c0.2-0.3,0.3-0.6,0.4-1C204.7,53,204.7,52.6,204.7,52.3z"/>
	</g>
	<g>
		<path class="st0" d="M212.1,53.4c0-0.3,0-0.6,0.1-0.9c0.1-0.3,0.2-0.6,0.4-0.8c0.2-0.3,0.4-0.5,0.7-0.8s0.7-0.5,1.1-0.8
			c-0.2-0.3-0.4-0.6-0.6-0.9c-0.2-0.3-0.3-0.5-0.4-0.7s-0.2-0.4-0.2-0.6c-0.1-0.2-0.1-0.4-0.1-0.6c0-0.4,0.1-0.7,0.2-1
			s0.3-0.6,0.6-0.9c0.3-0.3,0.6-0.5,1.1-0.6c0.4-0.2,0.9-0.2,1.6-0.2c0.5,0,1,0.1,1.3,0.2c0.4,0.1,0.7,0.3,0.9,0.5s0.4,0.5,0.6,0.7
			c0.1,0.3,0.2,0.6,0.2,1c0,0.3-0.1,0.7-0.2,1s-0.3,0.6-0.5,0.8s-0.6,0.5-0.9,0.8c-0.4,0.3-0.9,0.5-1.4,0.8c0.2,0.2,0.4,0.5,0.6,0.8
			s0.5,0.5,0.7,0.8c0.3,0.3,0.5,0.5,0.8,0.8c0.3,0.3,0.5,0.5,0.8,0.7c0.1-0.2,0.2-0.3,0.3-0.5c0.1-0.2,0.2-0.4,0.3-0.6
			c0.1-0.2,0.1-0.5,0.2-0.7c0-0.2,0.1-0.5,0.1-0.7v-0.3c0-0.1,0-0.1,0-0.1c0,0,0.1-0.1,0.1-0.1s0.1,0,0.2-0.1c0.1,0,0.2,0,0.4,0
			c0.1,0,0.2,0,0.3,0s0.2,0,0.2,0c0.1,0,0.1,0,0.1,0.1c0,0,0,0.1,0,0.2v0.2c0,0.3,0,0.7-0.1,1s-0.1,0.6-0.2,0.9
			c-0.1,0.3-0.2,0.6-0.4,0.9c-0.1,0.3-0.3,0.5-0.5,0.8c0.3,0.2,0.5,0.4,0.7,0.5s0.4,0.3,0.5,0.3s0.3,0.2,0.3,0.2c0.1,0,0.2,0,0.2,0
			c0.1,0,0.1,0,0.2,0c0.1,0,0.1,0,0.1,0c0,0,0.1,0.1,0.1,0.1c0,0.1,0,0.2,0,0.3c0,0.2,0,0.3,0,0.3s0,0.2,0,0.2c0,0,0,0.1-0.1,0.1
			c0,0-0.1,0.1-0.2,0.1s-0.2,0-0.4,0c-0.1,0-0.3,0-0.4-0.1s-0.3-0.1-0.5-0.2s-0.4-0.2-0.6-0.4c-0.3-0.2-0.5-0.4-0.9-0.7
			c-0.3,0.2-0.5,0.4-0.8,0.5s-0.6,0.3-0.9,0.4s-0.6,0.2-1,0.3s-0.7,0.1-1.1,0.1c-0.4,0-0.7,0-1.1-0.1c-0.3-0.1-0.6-0.2-0.9-0.3
			s-0.5-0.3-0.8-0.5c-0.2-0.2-0.4-0.4-0.6-0.6s-0.3-0.5-0.4-0.8C212.1,54,212.1,53.7,212.1,53.4z M213.6,53.2c0,0.3,0.1,0.6,0.1,0.8
			c0.1,0.3,0.3,0.5,0.4,0.7s0.4,0.3,0.8,0.4s0.6,0.2,1,0.2c0.2,0,0.5,0,0.7-0.1s0.4-0.1,0.6-0.2c0.2-0.1,0.4-0.2,0.6-0.3
			c0.2-0.1,0.4-0.3,0.5-0.4c-0.3-0.3-0.6-0.5-0.9-0.8s-0.6-0.6-0.9-0.9s-0.6-0.6-0.8-0.9c-0.3-0.3-0.5-0.6-0.7-0.8
			c-0.3,0.2-0.5,0.4-0.7,0.6c-0.2,0.2-0.4,0.4-0.5,0.5s-0.2,0.4-0.3,0.6C213.6,52.8,213.6,53,213.6,53.2z M214.6,47.1
			c0,0.2,0,0.3,0.1,0.5c0,0.2,0.1,0.3,0.2,0.5c0.1,0.2,0.2,0.4,0.3,0.6c0.1,0.2,0.3,0.4,0.5,0.7c0.4-0.2,0.8-0.5,1.1-0.7
			c0.3-0.2,0.5-0.4,0.7-0.6c0.2-0.2,0.3-0.4,0.4-0.6c0.1-0.2,0.1-0.4,0.1-0.6c0-0.2,0-0.3-0.1-0.5c-0.1-0.2-0.2-0.3-0.3-0.4
			c-0.1-0.1-0.3-0.2-0.5-0.3c-0.2-0.1-0.4-0.1-0.7-0.1c-0.3,0-0.6,0-0.8,0.1c-0.2,0.1-0.4,0.2-0.5,0.3c-0.1,0.1-0.2,0.3-0.3,0.5
			C214.7,46.8,214.6,46.9,214.6,47.1z"/>
	</g>
	<g>
		<path class="st0" d="M234.4,55c0,0.1,0,0.2,0,0.3s0,0.1,0,0.2s0,0.1-0.1,0.1s-0.1,0.1-0.1,0.2c-0.1,0.1-0.2,0.2-0.4,0.3
			c-0.2,0.1-0.4,0.2-0.6,0.3s-0.5,0.2-0.7,0.2c-0.3,0-0.5,0.1-0.8,0.1c-0.6,0-1.1-0.1-1.5-0.3c-0.4-0.2-0.8-0.5-1.1-0.8
			c-0.3-0.4-0.5-0.8-0.7-1.3c-0.2-0.5-0.2-1.1-0.2-1.8c0-0.8,0.1-1.5,0.3-2c0.2-0.6,0.4-1,0.8-1.4c0.3-0.4,0.7-0.6,1.2-0.8
			c0.4-0.2,0.9-0.3,1.4-0.3c0.3,0,0.5,0,0.7,0.1c0.2,0,0.5,0.1,0.6,0.2c0.2,0.1,0.4,0.2,0.5,0.3s0.3,0.2,0.3,0.3
			c0.1,0.1,0.1,0.1,0.1,0.2c0,0,0.1,0.1,0.1,0.2s0,0.1,0,0.2c0,0.1,0,0.2,0,0.3c0,0.2,0,0.4-0.1,0.5s-0.1,0.1-0.2,0.1
			c-0.1,0-0.2,0-0.3-0.2c-0.1-0.1-0.3-0.2-0.4-0.3c-0.2-0.1-0.4-0.2-0.6-0.3s-0.5-0.1-0.9-0.1c-0.7,0-1.2,0.3-1.6,0.8
			c-0.4,0.5-0.6,1.3-0.6,2.3c0,0.5,0.1,1,0.1,1.3c0.1,0.4,0.2,0.7,0.4,1c0.2,0.3,0.4,0.5,0.7,0.6c0.3,0.1,0.6,0.2,0.9,0.2
			c0.3,0,0.6,0,0.9-0.2s0.5-0.2,0.6-0.3c0.2-0.1,0.3-0.2,0.5-0.3s0.2-0.2,0.3-0.2c0,0,0.1,0,0.1,0c0,0,0.1,0.1,0.1,0.1
			c0,0.1,0,0.1,0,0.2C234.4,54.7,234.4,54.8,234.4,55z"/>
	</g>
	<g>
		<path class="st0" d="M242.3,56.2c0,0.1,0,0.1-0.1,0.2s-0.1,0.1-0.2,0.1s-0.2,0-0.4,0c-0.1,0-0.3,0-0.4,0s-0.2,0-0.2-0.1
			c0,0-0.1-0.1-0.1-0.2v-0.8c-0.4,0.4-0.7,0.7-1.1,0.9s-0.9,0.3-1.4,0.3c-0.4,0-0.8,0-1.1-0.2c-0.3-0.1-0.6-0.3-0.9-0.5
			c-0.2-0.2-0.4-0.5-0.6-0.8c-0.1-0.3-0.2-0.6-0.2-1c0-0.4,0.1-0.8,0.3-1.2c0.2-0.3,0.4-0.6,0.8-0.8s0.8-0.4,1.3-0.5
			c0.5-0.1,1-0.2,1.7-0.2h1.1v-0.6c0-0.3,0-0.6-0.1-0.8c-0.1-0.2-0.2-0.4-0.3-0.6s-0.3-0.3-0.6-0.3c-0.2-0.1-0.5-0.1-0.8-0.1
			c-0.4,0-0.7,0-1,0.1c-0.3,0.1-0.5,0.2-0.8,0.3c-0.2,0.1-0.4,0.2-0.5,0.3c-0.1,0.1-0.3,0.1-0.3,0.1c-0.1,0-0.1,0-0.1,0
			c0,0-0.1-0.1-0.1-0.1c0,0-0.1-0.1-0.1-0.2s0-0.2,0-0.2c0-0.2,0-0.3,0-0.3c0-0.1,0.1-0.2,0.1-0.2c0.1-0.1,0.2-0.2,0.4-0.3
			c0.2-0.1,0.4-0.2,0.7-0.3c0.3-0.1,0.5-0.2,0.8-0.2s0.6-0.1,0.9-0.1c0.6,0,1.1,0.1,1.4,0.2c0.4,0.1,0.7,0.3,1,0.6s0.4,0.6,0.5,0.9
			c0.1,0.4,0.2,0.8,0.2,1.3L242.3,56.2L242.3,56.2z M240.9,52.6h-1.2c-0.4,0-0.7,0-1,0.1c-0.3,0.1-0.5,0.2-0.7,0.3s-0.3,0.3-0.4,0.5
			s-0.1,0.4-0.1,0.6c0,0.4,0.1,0.7,0.4,1c0.3,0.2,0.6,0.4,1.1,0.4c0.4,0,0.7-0.1,1.1-0.3c0.3-0.2,0.7-0.5,1-0.9L240.9,52.6
			L240.9,52.6z"/>
	</g>
	<g>
		<path class="st0" d="M249.3,45c0,0.1,0,0.2,0,0.3c0,0.1,0,0.1,0,0.2c0,0,0,0.1-0.1,0.1c0,0-0.1,0-0.1,0s-0.1,0-0.1,0
			c-0.1,0-0.1-0.1-0.2-0.1c-0.1,0-0.2-0.1-0.3-0.1s-0.3,0-0.4,0c-0.2,0-0.4,0-0.6,0.1c-0.1,0.1-0.3,0.2-0.4,0.3s-0.2,0.3-0.2,0.6
			s-0.1,0.5-0.1,0.9V48h1.8c0.1,0,0.1,0,0.1,0s0.1,0.1,0.1,0.1s0.1,0.1,0.1,0.2c0,0.1,0,0.2,0,0.3c0,0.2,0,0.4-0.1,0.5
			s-0.1,0.1-0.2,0.1h-1.8v6.9c0,0,0,0.1,0,0.1c0,0-0.1,0.1-0.1,0.1s-0.1,0-0.2,0s-0.2,0-0.4,0s-0.3,0-0.4,0c-0.1,0-0.2,0-0.2,0
			c-0.1,0-0.1,0-0.1-0.1c0,0,0-0.1,0-0.1v-6.9h-1.1c-0.1,0-0.2,0-0.2-0.1s-0.1-0.3-0.1-0.5c0-0.1,0-0.2,0-0.3c0-0.1,0-0.1,0.1-0.2
			s0.1-0.1,0.1-0.1c0,0,0.1,0,0.1,0h1.1v-0.8c0-0.5,0.1-1,0.1-1.4c0.1-0.4,0.3-0.7,0.5-1s0.5-0.4,0.8-0.6c0.3-0.1,0.7-0.2,1.1-0.2
			c0.2,0,0.4,0,0.6,0.1c0.2,0,0.3,0.1,0.4,0.1c0.1,0,0.2,0.1,0.2,0.1c0,0,0.1,0.1,0.1,0.1s0,0.1,0.1,0.2
			C249.3,44.8,249.3,44.9,249.3,45z"/>
	</g>
	<g>
		<path class="st0" d="M257.2,51.9c0,0.2-0.1,0.4-0.2,0.5c-0.1,0.1-0.3,0.1-0.4,0.1h-5.2c0,0.4,0,0.8,0.1,1.2
			c0.1,0.3,0.2,0.7,0.4,0.9c0.2,0.3,0.5,0.5,0.8,0.6s0.7,0.2,1.2,0.2c0.4,0,0.7,0,1-0.1c0.3-0.1,0.6-0.1,0.8-0.2
			c0.2-0.1,0.4-0.1,0.5-0.2c0.1-0.1,0.2-0.1,0.3-0.1c0,0,0.1,0,0.1,0s0.1,0,0.1,0.1c0,0,0,0.1,0,0.2s0,0.2,0,0.3c0,0.1,0,0.1,0,0.2
			s0,0.1,0,0.2c0,0,0,0.1,0,0.1c0,0,0,0.1-0.1,0.1s-0.1,0.1-0.3,0.2s-0.4,0.1-0.6,0.2c-0.3,0.1-0.5,0.1-0.9,0.2
			c-0.3,0.1-0.7,0.1-1.1,0.1c-0.6,0-1.2-0.1-1.7-0.3s-0.9-0.5-1.2-0.8s-0.6-0.8-0.8-1.3c-0.2-0.5-0.3-1.2-0.3-1.9
			c0-0.7,0.1-1.3,0.3-1.8c0.2-0.5,0.4-1,0.8-1.4s0.7-0.7,1.2-0.9s1-0.3,1.6-0.3c0.6,0,1.1,0.1,1.6,0.3c0.4,0.2,0.8,0.5,1.1,0.8
			c0.3,0.3,0.5,0.7,0.6,1.2c0.1,0.5,0.2,0.9,0.2,1.5L257.2,51.9L257.2,51.9z M255.8,51.4c0-0.8-0.1-1.4-0.5-1.8s-0.9-0.7-1.6-0.7
			c-0.4,0-0.7,0.1-0.9,0.2c-0.3,0.1-0.5,0.3-0.7,0.5c-0.2,0.2-0.3,0.5-0.4,0.8c-0.1,0.3-0.2,0.6-0.2,0.9L255.8,51.4L255.8,51.4z"/>
	</g>
</g>
<g>
	<path class="st0" d="M12.8,7.2c2-2,2.6-2.6,4-6.6C17.5,3.9,16.1,7.2,12.8,7.2z"/>
	<g>
		<g>
			<g>
				<path class="st0" d="M36,35.6l-0.4,0.7c6,0.5,6.8,3.8,6.2,7.7c-0.7,4.1-6.7,8.6-11.1,7.4c-0.3-0.1-0.6-0.2-0.8-0.3
					c0.6,0.4,1.4,0.7,2.2,0.9c4.6,1.3,10.8-2.9,11.7-7.9C44.5,39.1,43.2,35.6,36,35.6z"/>
			</g>
		</g>
		<g>
			<g>
				<path class="st0" d="M19.4,38.2c-6.9,0-13.2-1-18.4-2.7c-0.1,0.9-0.1,1.8-0.1,2.7C0.9,49.9,9.2,58,19.4,58s18.5-8.1,18.5-19.8
					c0-0.9-0.1-1.8-0.2-2.7C32.6,37.2,26.3,38.2,19.4,38.2z"/>
			</g>
			<g>
				<g>
					<path class="st0" d="M37.5,36.5c0.3-0.3,0.5-0.6,0.5-1c0-2.4-8.3-4.6-18.5-4.6S0.9,33.2,0.9,35.6c0,0.3,0.2,0.7,0.5,1
						c2.9-1.7,9.9-2.9,18-2.9S34.5,34.9,37.5,36.5z"/>
				</g>
				<g>
					<path class="st1" d="M37.5,36.5c-2.9-1.7-9.9-2.9-18-2.9s-15.1,1.3-18,2.9c1.9,1.8,9.2,3,18,3S35.5,38.4,37.5,36.5z"/>
				</g>
			</g>
		</g>
	</g>
	<path class="st0" d="M6.2,14.4c-1.5-1.5-2.6-4-1.3-4s2,0,3.3,0s2.6-2,4.6-2.6s2,0,3.3-0.7s8.6-5.9,9.9-6.6s-0.7,1.3-1.3,2
		s-6,4-7.3,5.9c2-1.3,2-1.3,4-1.3c0,1.3-2,2-3.3,2.6c-0.7,1.3,1.3,1.3,3.3,0.7s7.9,0,7.9,2.6s0,5.9-6,7.9s-7.3,4-7.3,5.3
		s7.3,0,8.6,1.3s-4,5.9-4.6,7.3s-0.7,4.6-0.7,4.6c-1.3-3.3,0-5.3,0.7-6.6c0.7-1.3,2.6-2,1.3-2.6s-5.3,0-7.3,0s-5.3-2-5.3-4.6
		s3.3-4.6,5.9-6s7.3-2,7.9-3.3s0.7-0.7-1.3-1.3s-4,0.7-5.3,0c-1.3-0.7-2.6-1.3-3.3-1.3s-1.3,0-3.3,1.3C8.3,15.9,6.9,15.1,6.2,14.4z"
		/>
</g>
<g>
	<path class="st2" d="M148,34c-1.2,0-2.4-0.2-3.4-0.7c-1.1-0.5-2.1-1.1-2.9-2c-0.8-0.9-1.5-1.9-2-3.2c-0.5-1.3-0.7-2.7-0.7-4.4
		c0-1.7,0.3-3.1,0.7-4.4c0.5-1.3,1.1-2.3,2-3.2c0.8-0.9,1.8-1.5,2.9-2c1.1-0.4,2.2-0.6,3.4-0.6c1.2,0,2.3,0.2,3.4,0.6
		c1.1,0.4,2.1,1,2.9,1.9c0.9,0.9,1.5,1.9,2,3.1c0.5,1.3,0.7,2.7,0.7,4.4c0,1.6-0.3,3.1-0.7,4.4c-0.5,1.3-1.1,2.4-2,3.3
		c-0.9,0.9-1.8,1.6-2.9,2.1C150.4,33.8,149.2,34,148,34z M148,32.6c0.4,0,0.7-3.9,0.7-8.8s-0.3-8.8-0.7-8.8s-0.7,3.9-0.7,8.8
		C147.3,28.7,147.6,32.6,148,32.6"/>
	<path class="st3" d="M148,34c-1.2,0-2.4-0.2-3.4-0.7c-1.1-0.5-2.1-1.1-2.9-2c-0.8-0.9-1.5-1.9-2-3.2c-0.5-1.3-0.7-2.7-0.7-4.4
		c0-1.7,0.3-3.1,0.7-4.4c0.5-1.3,1.1-2.3,2-3.2c0.8-0.9,1.8-1.5,2.9-2c1.1-0.4,2.2-0.6,3.4-0.6c1.2,0,2.3,0.2,3.4,0.6
		c1.1,0.4,2.1,1,2.9,1.9c0.9,0.9,1.5,1.9,2,3.1c0.5,1.3,0.7,2.7,0.7,4.4c0,1.6-0.3,3.1-0.7,4.4c-0.5,1.3-1.1,2.4-2,3.3
		c-0.9,0.9-1.8,1.6-2.9,2.1C150.4,33.8,149.2,34,148,34z M148,32.6c0.4,0,0.7-3.9,0.7-8.8s-0.3-8.8-0.7-8.8s-0.7,3.9-0.7,8.8
		C147.3,28.7,147.6,32.6,148,32.6"/>
</g>
<g>
	<path class="st2" d="M213.1,34c-1.2,0-2.3-0.2-3.4-0.7c-1.1-0.5-2.1-1.1-2.9-2c-0.8-0.9-1.5-1.9-2-3.2c-0.5-1.3-0.7-2.7-0.7-4.4
		c0-1.7,0.3-3.1,0.7-4.4c0.5-1.3,1.1-2.3,2-3.2c0.8-0.9,1.8-1.5,2.9-2c1.1-0.4,2.2-0.6,3.4-0.6c1.2,0,2.3,0.2,3.4,0.6
		c1.1,0.4,2.1,1,2.9,1.9c0.9,0.9,1.5,1.9,2,3.1c0.5,1.3,0.7,2.7,0.7,4.4c0,1.6-0.3,3.1-0.7,4.4c-0.5,1.3-1.1,2.4-2,3.3
		c-0.9,0.9-1.8,1.6-2.9,2.1C215.5,33.8,214.3,34,213.1,34z M213.1,32.6c0.4,0,0.7-3.9,0.7-8.8s-0.3-8.8-0.7-8.8s-0.7,3.9-0.7,8.8
		C212.4,28.7,212.7,32.6,213.1,32.6"/>
	<path class="st3" d="M213.1,34c-1.2,0-2.3-0.2-3.4-0.7c-1.1-0.5-2.1-1.1-2.9-2c-0.8-0.9-1.5-1.9-2-3.2c-0.5-1.3-0.7-2.7-0.7-4.4
		c0-1.7,0.3-3.1,0.7-4.4c0.5-1.3,1.1-2.3,2-3.2c0.8-0.9,1.8-1.5,2.9-2c1.1-0.4,2.2-0.6,3.4-0.6c1.2,0,2.3,0.2,3.4,0.6
		c1.1,0.4,2.1,1,2.9,1.9c0.9,0.9,1.5,1.9,2,3.1c0.5,1.3,0.7,2.7,0.7,4.4c0,1.6-0.3,3.1-0.7,4.4c-0.5,1.3-1.1,2.4-2,3.3
		c-0.9,0.9-1.8,1.6-2.9,2.1C215.5,33.8,214.3,34,213.1,34z M213.1,32.6c0.4,0,0.7-3.9,0.7-8.8s-0.3-8.8-0.7-8.8s-0.7,3.9-0.7,8.8
		C212.4,28.7,212.7,32.6,213.1,32.6"/>
</g>
</svg>
